<svg xmlns="http://www.w3.org/2000/svg" width="30" height="30"><polygon opacity=".3" fill="#fff" points="30,0 0,30 1,30 30,1"/><polygon opacity=".3" fill="#fff" points="30,5 0,35 1,35 30,6"/><polygon opacity=".3" fill="#fff" points="30,10 0,40 1,40 30,11"/><polygon opacity=".3" fill="#fff" points="30,15 0,45 1,45 30,16"/><polygon opacity=".3" fill="#fff" points="30,20 0,50 1,50 30,21"/><polygon opacity=".3" fill="#fff" points="30,25 0,55 1,55 30,26"/><polygon opacity=".3" fill="#fff" points="26,-1 -4,29 -3,29 26,0"/><polygon opacity=".3" fill="#fff" points="21,-1 -9,29 -8,29 21,0"/><polygon opacity=".3" fill="#fff" points="16,-1 -14,29 -13,29 16,0"/><polygon opacity=".3" fill="#fff" points="11,-1 -19,29 -18,29 11,0"/><polygon opacity=".3" fill="#fff" points="6,-1 -24,29 -23,29 6,0"/><polygon opacity=".3" fill="#fff" points="1,-1 -29,29 -28,29 1,0"/></svg>